<svg width="50" height="50" fill="none" xmlns="http://www.w3.org/2000/svg" viewBox="0 0 50 50"><path fill="#000"   d="M49.5,29.48a10.43,10.43,0,0,0-1.28-1.55,13.89,13.89,0,0,0-5.06-3.26A20.36,20.36,0,0,0,36,23.46H14.19L8.94,18.2a4.67,4.67,0,0,1,0-6.61L17.82,2.7a4.7,4.7,0,0,1,6.62,0L45.5,23.77A18.57,18.57,0,0,1,49.5,29.48Z"/><path fill="#000"   d="M5.41,48.66A5.41,5.41,0,0,1,0,43.26V30.69a5.41,5.41,0,0,1,5.41-5.41H35.19c6.27,0,9.83,2.31,11.72,4.25A10.65,10.65,0,0,1,50,37.25c-.15,5.5-4.84,11.41-14.81,11.41ZM41.16,34.78A2.2,2.2,0,1,0,43.35,37,2.2,2.2,0,0,0,41.16,34.78Z"/></svg>