<svg width="50" height="50" fill="none" xmlns="http://www.w3.org/2000/svg" viewBox="0 0 50 50"><path fill="#000"   d="M20,.49A24.86,24.86,0,0,0,.51,19.87c-3.62,18.26,12.86,31.87,25.27,30,4-.63,6-5.33,4.15-9a6.61,6.61,0,0,1,6-9.61h7.78A6.39,6.39,0,0,0,50,24.88,25,25,0,0,0,20,.49ZM9.37,31.25a3.13,3.13,0,1,1,3.13-3.12A3.12,3.12,0,0,1,9.37,31.25Zm3.13-12.5a3.13,3.13,0,1,1,3.12-3.12A3.12,3.12,0,0,1,12.5,18.75ZM25,12.5a3.13,3.13,0,1,1,3.12-3.12A3.12,3.12,0,0,1,25,12.5Zm12.5,6.25a3.13,3.13,0,1,1,3.12-3.12A3.12,3.12,0,0,1,37.5,18.75Z"/></svg>