<svg width="50" height="50" fill="none" xmlns="http://www.w3.org/2000/svg" viewBox="0 0 50 50"><path fill="#000"   d="M17.19,44.37a3.15,3.15,0,0,0,.53,1.73l1.67,2.51A3.1,3.1,0,0,0,22,50h6a3.13,3.13,0,0,0,2.61-1.39l1.66-2.51a3.17,3.17,0,0,0,.53-1.73V40.62H17.19ZM7.81,17.19a17.07,17.07,0,0,0,4.26,11.3,28.32,28.32,0,0,1,5.1,8.93.22.22,0,0,0,0,.08H32.82a.22.22,0,0,0,0-.08,28.32,28.32,0,0,1,5.1-8.93A17.18,17.18,0,1,0,7.81,17.19ZM25,9.37a7.82,7.82,0,0,0-7.81,7.82,1.57,1.57,0,0,1-3.13,0A11,11,0,0,1,25,6.25a1.56,1.56,0,0,1,0,3.12Z"/></svg>